<svg xmlns="http://www.w3.org/2000/svg" viewBox="0 0 760 520" role="img" aria-labelledby="title desc">
  <title id="title">Middle East peace process archive map</title>
  <desc id="desc">Stylized Eastern Mediterranean source map showing Israel, Jordan, Syria, Lebanon, Egypt, Saudi Arabia, the United Nations lane, and Madrid.</desc>
  <defs>
    <linearGradient id="sea" x1="0" x2="1" y1="0" y2="1">
      <stop offset="0" stop-color="#d8ecea"/>
      <stop offset="1" stop-color="#9dc4c4"/>
    </linearGradient>
    <linearGradient id="paper" x1="0" x2="0" y1="0" y2="1">
      <stop offset="0" stop-color="#fffdf6"/>
      <stop offset="1" stop-color="#ede1c8"/>
    </linearGradient>
    <filter id="shadow" x="-20%" y="-20%" width="140%" height="140%">
      <feDropShadow dx="0" dy="16" stdDeviation="18" flood-color="#172027" flood-opacity=".18"/>
    </filter>
  </defs>
  <rect width="760" height="520" rx="20" fill="#f7f4ea"/>
  <path d="M0 0h760v520H0z" fill="url(#sea)"/>
  <path d="M366 42c72 20 112 62 132 116 30 81 123 87 162 153 38 65 2 151-78 171-89 23-146-28-226-20-80 7-134 57-216 33-84-25-123-107-96-184 27-78 109-99 151-154 45-59 81-140 171-115z" fill="#efe3ca" opacity=".82"/>
  <path d="M381 74c45 34 74 63 88 111 17 60 77 89 119 127 57 51 23 123-37 138-55 14-112-27-166-13-73 19-100 69-171 50-79-21-94-95-65-151 38-73 116-89 143-153 18-42 33-89 89-109z" fill="url(#paper)" filter="url(#shadow)"/>
  <path d="M355 98c36 35 62 71 61 124-.6 48 38 74 74 99 36 26 32 81-7 103-38 21-86 4-128 26-44 23-75 49-126 29-56-22-62-88-25-130 47-53 103-69 116-139 8-45 7-89 35-112z" fill="#d9cfb9"/>
  <path d="M396 110c40 18 74 51 86 88 13 41 48 56 86 75 28 15 45 49 29 82-19 39-67 38-105 26-43-13-73 1-111 30-42 32-95 60-144 35-49-26-52-86-14-128 39-42 79-60 94-116 15-54 32-83 79-92z" fill="#f6efd8"/>
  <path d="M506 109c-23 22-37 50-39 82-4 44 16 75 45 103 26 25 60 39 79 68 24 37 12 78-25 102 78-22 119-87 94-153-36-93-115-120-154-202z" fill="#eadab5"/>
  <path d="M311 128c-22 35-16 74 1 108 17 35 15 69-8 98-27 34-61 53-78 93 66 11 101-28 141-60 40-33 54-78 40-135-11-45-49-75-96-104z" fill="#d7c09c"/>
  <g fill="none" stroke="#164c63" stroke-width="4" stroke-linecap="round" stroke-linejoin="round" opacity=".72">
    <path d="M560 118c-77 39-113 89-122 150"/>
    <path d="M156 136c98 59 170 107 216 189"/>
    <path d="M184 395c70-64 128-91 208-112"/>
    <path d="M594 406c-79-15-139-52-177-109"/>
  </g>
  <g font-family="Inter, Arial, sans-serif" font-size="18" font-weight="800">
    <g transform="translate(438 232)">
      <circle r="11" fill="#9c3e35"/>
      <text x="18" y="6" fill="#172027">Israel</text>
    </g>
    <g transform="translate(487 271)">
      <circle r="9" fill="#315f52"/>
      <text x="18" y="6" fill="#172027">Jordan</text>
    </g>
    <g transform="translate(462 174)">
      <circle r="9" fill="#ad8437"/>
      <text x="18" y="6" fill="#172027">Syria</text>
    </g>
    <g transform="translate(433 156)">
      <circle r="7" fill="#164c63"/>
      <text x="-90" y="6" fill="#172027">Lebanon</text>
    </g>
    <g transform="translate(332 322)">
      <circle r="10" fill="#9c3e35"/>
      <text x="-74" y="6" fill="#172027">Egypt</text>
    </g>
    <g transform="translate(566 353)">
      <circle r="9" fill="#315f52"/>
      <text x="18" y="6" fill="#172027">Saudi</text>
    </g>
    <g transform="translate(135 130)">
      <rect x="-54" y="-20" width="108" height="38" rx="6" fill="#fffdf6" stroke="#164c63" stroke-width="2"/>
      <text x="-31" y="6" fill="#172027">Madrid</text>
    </g>
    <g transform="translate(603 86)">
      <rect x="-45" y="-20" width="90" height="38" rx="6" fill="#fffdf6" stroke="#315f52" stroke-width="2"/>
      <text x="-16" y="6" fill="#172027">UN</text>
    </g>
  </g>
  <g font-family="Inter, Arial, sans-serif" font-size="14" font-weight="900" letter-spacing=".08em" fill="#164c63">
    <text x="36" y="478">FRUS XIV COMPILER SOURCE MAP</text>
  </g>
  <g transform="translate(36 32)" font-family="Inter, Arial, sans-serif">
    <rect width="244" height="88" rx="8" fill="#fffdf6" stroke="#c7b993"/>
    <text x="18" y="31" font-size="16" font-weight="900" fill="#9c3e35">Bush41-MEPP</text>
    <text x="18" y="58" font-size="14" fill="#39464d">Presidential files, Public Papers,</text>
    <text x="18" y="76" font-size="14" fill="#39464d">source leads, gaps, and review state</text>
  </g>
</svg>

